<?xml version="1.0" encoding="UTF-8"?>
<!DOCTYPE svg PUBLIC "-//W3C//DTD SVG 1.1//EN" "http://www.w3.org/Graphics/SVG/1.1/DTD/svg11.dtd">
<svg xmlns="http://www.w3.org/2000/svg" version="1.1" width="216px" height="216px"
     style="shape-rendering:geometricPrecision; text-rendering:geometricPrecision; image-rendering:optimizeQuality; fill-rule:evenodd; clip-rule:evenodd">
<g><path style="opacity:0.996" fill="#d83a3e" d="M 161.5,187.5 C 137.893,187.111 114.227,187.111 90.5,187.5C 69.6167,187.489 48.95,186.822 28.5,185.5C 28.3333,144.832 28.5,104.165 29,63.5C 29.6668,52.6548 33.1668,42.9882 39.5,34.5C 42.8347,33.5392 44.5014,31.2059 44.5,27.5C 46.2344,24.7997 48.5677,22.7997 51.5,21.5C 51.756,23.9124 50.756,25.5791 48.5,26.5C 50.2592,27.754 51.7592,27.4206 53,25.5C 53.4955,23.5273 53.6621,21.5273 53.5,19.5C 82.5216,3.29424 107.355,8.29424 128,34.5C 136.099,48.4175 139.266,63.4175 137.5,79.5C 162.709,77.0264 182.542,86.0264 197,106.5C 211.467,136.464 205.301,161.297 178.5,181C 173.227,184.257 167.561,186.423 161.5,187.5 Z M 79.5,43.5 C 89.8273,42.4111 97.3273,46.4111 102,55.5C 103.283,74.4484 103.949,93.4484 104,112.5C 122.811,113.045 141.645,113.879 160.5,115C 170.206,120.754 173.706,129.254 171,140.5C 169.167,147.667 164.667,152.167 157.5,154C 125.835,154.5 94.1684,154.667 62.5,154.5C 62.3334,122.498 62.5,90.4983 63,58.5C 65.5697,50.0894 71.0697,45.0894 79.5,43.5 Z"/></g>
<g><path style="opacity:1" fill="#d23d3f" d="M 53.5,19.5 C 53.6621,21.5273 53.4955,23.5273 53,25.5C 51.7592,27.4206 50.2592,27.754 48.5,26.5C 50.756,25.5791 51.756,23.9124 51.5,21.5C 51.8333,20.5 52.5,19.8333 53.5,19.5 Z"/></g>
<g><path style="opacity:1" fill="#dc383b" d="M 44.5,27.5 C 44.5014,31.2059 42.8347,33.5392 39.5,34.5C 40.7859,31.883 42.4525,29.5496 44.5,27.5 Z"/></g>
<g><path style="opacity:1" fill="#d73b3b" d="M 106.5,107.5 C 106.5,93.1667 106.5,78.8333 106.5,64.5C 106.461,63.2438 106.961,62.2438 108,61.5C 108.667,76.5 108.667,91.5 108,106.5C 107.617,107.056 107.117,107.389 106.5,107.5 Z"/></g>
<g><path style="opacity:1" fill="#d73943" d="M 106.5,64.5 C 106.5,78.8333 106.5,93.1667 106.5,107.5C 105.169,100.699 104.503,93.5325 104.5,86C 104.503,78.4675 105.169,71.3008 106.5,64.5 Z"/></g>
<g><path style="opacity:1" fill="#d13d41" d="M 153.5,110.5 C 155.364,109.207 157.364,109.207 159.5,110.5C 157.599,111.231 155.599,111.231 153.5,110.5 Z"/></g>
<g><path style="opacity:1" fill="#d53a42" d="M 106.5,109.5 C 121.104,110.151 135.771,110.818 150.5,111.5C 136.178,112.666 121.845,112.833 107.5,112C 106.748,111.329 106.414,110.496 106.5,109.5 Z"/></g>
<g><path style="opacity:1" fill="#d03e3d" d="M 172.5,131.5 C 173.649,131.791 174.316,132.624 174.5,134C 174.333,134.833 174.167,135.667 174,136.5C 172.991,134.975 172.491,133.308 172.5,131.5 Z"/></g>
<g><path style="opacity:1" fill="#d83a3d" d="M 63.5,159.5 C 92.6638,158.336 121.997,158.17 151.5,159C 136.983,160.16 122.316,160.66 107.5,160.5C 92.7606,160.492 78.0939,160.159 63.5,159.5 Z"/></g>
<g><path style="opacity:0.755" fill="#d63b3c" d="M 28.5,185.5 C 48.95,186.822 69.6167,187.489 90.5,187.5C 114.227,187.111 137.893,187.111 161.5,187.5C 159.369,188.314 157.036,188.814 154.5,189C 112.833,189.667 71.1667,189.667 29.5,189C 28.6634,187.989 28.33,186.822 28.5,185.5 Z"/></g>
</svg>
